# xmcd CD database file
#
# Track frame offsets:
#	150
#	18270
#	38360
#	55720
#	72090
#	88815
#	107695
#	125390
#	143160
#	161953
#	180643
#
# Disc length: 2610 seconds
#
# Revision: 1
# Processed by: cddbd v1.5.2PL0 Copyright (c) Steve Scherf et al.
# Submitted via: CDex 1.51
#
DISCID=8a0a300b
DTITLE=BERNIE BONVOISIN - En Avoir Ou Pas
DYEAR=1988
DGENRE=variété francaise
TTITLE0=Du noir, du blanc, du blues
TTITLE1=Plus d'espoir
TTITLE2=Envie de hurler
TTITLE3=Je te suivrai
TTITLE4=Tu retourneras marcher
TTITLE5=Plus rien ne m'étonne
TTITLE6=Sans faire d'histoire
TTITLE7=L'indifférence
TTITLE8=Autopsie d'un jeu
TTITLE9=Descendu en flammes
TTITLE10=Jamais assez
EXTD=YEAR: 1988
EXTT0=
EXTT1=
EXTT2=
EXTT3=
EXTT4=
EXTT5=
EXTT6=
EXTT7=
EXTT8=
EXTT9=
EXTT10=
PLAYORDER=
